<svg id="svg" xmlns="http://www.w3.org/2000/svg" xmlns:xlink="http://www.w3.org/1999/xlink" width="400" height="399.4851994851995" viewBox="0, 0, 400,399.4851994851995"><path id="path0" d="M305.792 13.179 C 291.614 16.963,264.001 38.523,244.850 60.761 C 239.862 66.552,229.021 82.268,222.180 93.621 C 220.280 96.776,218.639 99.356,218.535 99.356 C 218.430 99.356,215.549 98.559,212.132 97.585 C 189.951 91.261,165.990 92.337,145.215 100.591 L 136.762 103.949 126.397 100.679 C 115.050 97.098,101.681 93.579,90.090 91.121 C 66.387 86.095,28.220 85.648,22.774 90.333 L 21.408 91.508 22.384 93.672 C 25.440 100.449,48.557 114.188,63.578 118.154 C 66.409 118.902,70.116 119.949,71.815 120.482 C 80.441 123.187,97.167 126.085,106.451 126.484 C 110.495 126.657,113.737 126.938,113.654 127.106 C 113.572 127.275,112.666 129.035,111.640 131.017 C 108.592 136.905,105.360 147.538,103.996 156.167 C 103.689 158.107,102.898 160.771,102.237 162.087 C 96.296 173.917,95.111 182.899,98.102 193.431 C 99.619 198.776,107.262 207.500,119.761 218.157 C 124.061 221.823,124.790 223.437,123.823 227.151 C 122.905 230.676,119.624 251.142,119.139 256.371 C 118.942 258.494,118.132 262.432,117.339 265.122 C 111.222 285.876,109.157 309.669,112.334 322.780 C 113.332 326.900,117.257 333.931,121.834 339.800 C 124.703 343.479,124.795 343.105,119.701 348.480 C 112.410 356.174,107.286 364.752,107.827 368.359 C 109.322 378.328,135.376 370.619,156.308 354.015 L 162.420 349.167 168.855 347.968 C 180.547 345.789,196.589 346.436,214.973 349.826 C 227.868 352.204,226.349 351.480,230.369 357.165 C 243.121 375.196,252.538 384.041,258.980 384.041 C 267.141 384.041,268.186 372.066,261.980 349.644 L 259.941 342.273 262.465 339.090 C 269.212 330.585,271.841 324.812,273.877 314.028 L 274.412 311.197 297.695 295.658 C 310.501 287.112,325.148 277.759,330.245 274.873 C 335.341 271.988,340.495 269.067,341.699 268.382 C 342.902 267.698,343.887 266.836,343.887 266.468 C 343.887 264.964,331.602 257.202,316.920 249.427 L 311.318 246.460 318.709 241.614 C 322.774 238.949,330.392 234.382,335.637 231.465 C 346.535 225.405,357.422 218.469,357.179 217.742 C 356.262 214.998,336.644 204.305,318.919 196.887 C 314.389 194.992,310.515 193.290,310.311 193.106 C 309.937 192.769,317.761 185.531,325.209 179.322 C 329.990 175.337,352.482 158.433,361.004 152.421 C 364.331 150.074,367.053 147.974,367.053 147.754 C 367.053 146.291,345.429 130.066,334.106 123.034 C 329.434 120.132,319.394 113.698,311.796 108.736 L 297.980 99.713 294.748 103.009 C 290.459 107.384,252.715 146.342,252.239 146.885 C 252.034 147.118,251.461 145.613,250.966 143.539 C 249.872 138.963,247.051 131.221,244.766 126.525 L 243.081 123.063 253.397 111.338 C 291.728 67.775,303.281 48.677,307.842 21.334 C 308.453 17.670,309.078 14.151,309.230 13.514 C 309.549 12.178,309.544 12.177,305.792 13.179 M260.232 212.052 C 272.876 216.044,275.121 216.822,281.446 219.408 L 286.701 221.556 283.785 224.935 C 279.122 230.337,272.331 237.775,268.924 241.212 C 265.857 244.306,263.658 248.317,264.222 249.788 C 264.619 250.822,274.482 255.598,281.596 258.200 C 287.944 260.523,298.203 265.549,297.945 266.209 C 297.467 267.430,273.584 289.695,273.313 289.172 C 273.135 288.828,272.707 287.040,272.364 285.199 C 269.917 272.085,261.249 245.434,255.168 232.325 C 251.808 225.080,251.573 224.344,250.195 216.731 C 249.605 213.475,249.007 210.271,248.866 209.611 C 248.658 208.644,248.787 208.466,249.529 208.688 C 250.036 208.840,254.852 210.354,260.232 212.052 " stroke="none" fill="#737b8c" fill-rule="evenodd"></path></svg>